<svg xmlns="http://www.w3.org/2000/svg" viewBox="0 0 33.517 47.339"><path d="M10.457-.003c-.86 0-1.617.15-2.271.449a5.181 5.181 0 0 0-1.71 1.177A7.544 7.544 0 0 0 5.27 3.39a14.668 14.668 0 0 0-.87 2.073h-.056c0-.373-.01-.822-.028-1.345a39.2 39.2 0 0 0-.028-1.514 98.24 98.24 0 0 0-.056-1.317 7.095 7.095 0 0 0-.056-.73H0c.018.132.037.421.056.87.018.448.037.99.056 1.626.018.616.028 1.28.028 1.99.018.691.028 1.355.028 1.99v40.302h33.348v-3.87H16.848v-30.15c0-3.14.355-5.495 1.065-7.065.729-1.57 1.71-2.355 2.944-2.355.598 0 1.093.13 1.485.392.412.243.739.673.982 1.29.261.598.448 1.392.56 2.383.113.99.168 2.224.168 3.7v19.23h4.71V10.678c0-1.888-.112-3.504-.336-4.85-.206-1.345-.552-2.448-1.037-3.307-.487-.86-1.122-1.496-1.907-1.907-.785-.41-1.747-.617-2.887-.617-.879 0-1.654.121-2.327.365a5.443 5.443 0 0 0-1.794 1.065 7.328 7.328 0 0 0-1.402 1.738 15.908 15.908 0 0 0-1.093 2.327h-.056c-.355-1.87-.972-3.253-1.794-4.15C13.325.445 12.1-.003 10.456-.003zM8.915 3.893c.598 0 1.093.132 1.485.393.412.243.739.673.982 1.29.261.598.448 1.392.56 2.382.113.99.168 2.224.168 3.7v31.808H4.906V13.874c0-1.514.093-2.878.28-4.093.187-1.233.458-2.28.813-3.14.355-.878.776-1.55 1.262-2.018.485-.486 1.037-.73 1.654-.73z"/></svg>