<svg xmlns="http://www.w3.org/2000/svg" width="178.915" height="178.915" viewBox="0 0 47.338 47.338"
  xmlns:v="https://vecta.io/nano">
  <defs>
    <linearGradient id="A" x1=".662" x2=".662" y1="116.753" y2="52.441" gradientUnits="userSpaceOnUse">
      <stop stop-color="red" offset="0" />
      <stop offset="1" />
    </linearGradient>
    <linearGradient id="B" x1="47.693" x2="47.693" y1="116.753" y2="52.441" gradientUnits="userSpaceOnUse">
      <stop stop-color="#0f0" offset="0" />
      <stop offset="1" />
    </linearGradient>
    <linearGradient id="C" x1="94.613" x2="94.613" y1="116.753" y2="52.441" gradientUnits="userSpaceOnUse">
      <stop stop-color="#00f" offset="0" />
      <stop offset="1" />
    </linearGradient>
    <path id="D" d="M.007 95.833V79.387h4.937v12.576h17.368v3.87z" />
  </defs>
  <g transform="translate(.168 -48.494)">
    <use href="#D" fill="red" />
    <use href="#D" x="12.444" fill="#0f0" />
    <path d="M24.865 95.833V79.387h4.937v12.576h7.448v3.87z" fill="#00f" />
    <path
      d="M12.451 79.387V60.156l-.175-3.7c-.117-.991-.312-1.785-.584-2.383-.253-.617-.594-1.047-1.022-1.289-.409-.262-.925-.392-1.548-.392-.643 0-1.217.243-1.723.729-.506.467-.944 1.14-1.314 2.018-.37.86-.652 1.906-.847 3.14-.195 1.215-.292 2.579-.292 4.093v17.016H.008V55.53l-.029-1.99-.029-1.99-.058-1.626-.058-.869h4.352c.019.093.039.336.058.729l.058 1.318.029 1.514.029 1.346h.058a14.36 14.36 0 0 1 .906-2.075c.351-.673.769-1.261 1.256-1.766a5.41 5.41 0 0 1 1.782-1.177c.682-.299 1.47-.449 2.366-.449 1.714 0 2.989.449 3.826 1.346.857.897 1.47 2.28 1.84 4.149h.058c.351-.878.73-1.654 1.139-2.327.428-.691.915-1.271 1.46-1.738s1.168-.822 1.869-1.065 1.509-.364 2.424-.364c1.188 0 2.191.206 3.009.617s1.48 1.047 1.986 1.906.867 1.962 1.081 3.308c.234 1.346.351 2.962.351 4.85v20.212h-4.907V60.155l-.175-3.7c-.117-.991-.312-1.785-.584-2.383-.253-.617-.594-1.047-1.022-1.289-.409-.262-.925-.392-1.548-.392-1.285 0-2.308.785-3.067 2.355-.74 1.57-1.11 3.925-1.11 7.064v17.577z" />
    <path d="M43.3 95.833v-3.87h3.87v3.87zm-4.96 0v-3.87h3.87v3.87z" fill="#00f" />
    <g transform="matrix(.26458 0 0 .26458 -.168 48.494)">
      <path d="M.662 52.447v64.313H19.32V52.447H.662z" fill="url(#A)" />
      <path d="M47.693 52.447v64.313H66.24V52.447H47.693z" fill="url(#B)" />
      <path d="M94.613 52.447v64.313h18.547V52.447H94.613z" fill="url(#C)" />
    </g>
  </g>
</svg>